<?xml version="1.0" encoding="utf-8"?>
<!-- Generator: Adobe Illustrator 16.0.0, SVG Export Plug-In . SVG Version: 6.00 Build 0)  -->
<!DOCTYPE svg PUBLIC "-//W3C//DTD SVG 1.1//EN" "http://www.w3.org/Graphics/SVG/1.1/DTD/svg11.dtd">
<svg version="1.1" xmlns="http://www.w3.org/2000/svg" xmlns:xlink="http://www.w3.org/1999/xlink" x="0px" y="0px"
	 width="128.16px" height="128.16px" viewBox="0 0 128.16 128.16" enable-background="new 0 0 128.16 128.16" xml:space="preserve">
<g id="Layer_0_xA0_Image_1_">
</g>
<g id="Group_1_1_">
	<g id="Rounded_Rectangle_1_copy">
		<g>
			<path fill="#ECF0F0" d="M20.88,78v9.36c0,1.988,1.612,3.6,3.6,3.6h32.089c-0.221,1.443-0.965,5.86-2.16,8.378
				c-0.881,1.856-2.57,3.622-2.57,3.622c0,0.266,0.215,0.48,0.48,0.48h23.52c0.266,0,0.48-0.215,0.48-0.48
				c0,0-2.662-1.606-3.043-3.63c-0.703-3.746-1.251-7.152-1.442-8.37H103.2c1.988,0,3.6-1.611,3.6-3.6V78H20.88z"/>
		</g>
	</g>
	<g id="Rounded_Rectangle_1_copy_2">
		<g>
			<path fill="#AAAAAA" d="M75.84,103.44H52.32c-0.196,0-0.363-0.118-0.438-0.286c-0.017,0.018-0.043,0.046-0.043,0.046
				c0,0.265,0.215,0.479,0.48,0.479h23.52c0.266,0,0.48-0.215,0.48-0.479c0,0-0.021-0.013-0.053-0.03
				C76.189,103.329,76.029,103.44,75.84,103.44z M103.2,90.72H24.48c-1.988,0-3.6-1.611-3.6-3.6v0.96c0,1.988,1.612,3.6,3.6,3.6
				h78.72c1.988,0,3.6-1.611,3.6-3.6v-0.96C106.8,89.108,105.188,90.72,103.2,90.72z"/>
		</g>
	</g>
	<g id="Rounded_Rectangle_1">
		<g>
			<path fill="#0C2E30" d="M103.2,31.44H24.48c-1.988,0-3.6,1.612-3.6,3.6V78h85.92V35.04C106.8,33.052,105.188,31.44,103.2,31.44z
				 M63.96,82.08c-1.657,0-3,1.343-3,3s1.343,3,3,3c1.657,0,3-1.343,3-3S65.617,82.08,63.96,82.08z"/>
		</g>
	</g>
	<g id="Rectangle_1">
		<g>
			<rect x="25.68" y="36.72" fill="#1C3038" width="76.56" height="37.44"/>
		</g>
	</g>
</g>
</svg>
