<?xml version="1.0" standalone="no"?> <!DOCTYPE svg PUBLIC "-//W3C//DTD SVG 1.0//EN" "http://www.w3.org/TR/2001/REC-SVG-20010904/DTD/svg10.dtd" > <svg xmlns="http://www.w3.org/2000/svg" width="100%" height="100%">
<defs >
<font id="rudawbold" horiz-adv-x="1150" ><font-face
    font-family="Rudaw"
    units-per-em="2048"
    panose-1="0 0 0 0 0 0 0 0 0 0"
    ascent="1844"
    descent="-1024"
    alphabetic="0" />
<missing-glyph horiz-adv-x="450" />
<glyph unicode=" " glyph-name="uni0020" horiz-adv-x="409" />
<glyph unicode="!" glyph-name="uni0021" horiz-adv-x="481" d="M47 1309L88 1354L391 1278L354 322L94 303Q87 603 66 923T47 1309ZM371 -29L109 -43L94 215L356 229L371 -29Z" />
<glyph unicode="&quot;" glyph-name="uni0022" horiz-adv-x="774" d="M438 1272L471 1298L670 1253L653 741H455L438 1272ZM111 1272L143 1298L342 1253L326 741H127L111 1272Z" />
<glyph unicode="#" glyph-name="uni0023" horiz-adv-x="1447" d="M434 29L221 0L283 297H29V532H330Q340 584 383 791H125L131 1026H430L477 1264L737 1260Q708 1163 674 1026H936L983 1264L1243 1260L1182 1026H1427L1378 791H1124L1061 532H1325L1282 297H1004L940
29L727 0L788 297H496L434 29ZM836 532Q859 653 889 791H614L551 532H836Z" />
<glyph unicode="%" glyph-name="uni0025" horiz-adv-x="1538" d="M76 895Q76 1033 154 1113T367 1194Q505 1194 584 1114T664 895Q664 754 585 673T367 592Q231 592 154 673T76 895ZM467 895Q467 957 441 995T367 1034Q311 1041 285 970Q261 902 282 830Q303 759
354 756Q360 755 367 756Q414 756 440 795T467 895ZM877 281Q877 419 955 499T1169 580Q1306 580 1385 500T1464 281Q1464 139 1385 58T1169 -23Q1034 -23 956 58T877 281ZM1268 220T1268 281T1242 381T1169 420Q1112 426 1086 356Q1061 288 1083 216Q1103 146
1154 141Q1161 140 1169 141Q1215 141 1241 180ZM500 -2H295L1020 1227H1223L500 -2Z" />
<glyph unicode="&apos;" glyph-name="uni0027" horiz-adv-x="438" d="M94 1272L127 1298L326 1253L309 741H111L94 1272Z" />
<glyph unicode="(" glyph-name="uni0028" horiz-adv-x="628" d="M627 -123L508 -377Q432 -352 364 -305T234 -179T129 -1T59 235T33 528Q33 690 69 854T187 1171T381 1403L592 1167Q528 1117 473 1044T383 904T316 751T270 616T240 502Q265 379 297 282T376 102T485
-37T627 -123Z" />
<glyph unicode=")" glyph-name="uni0029" horiz-adv-x="638" d="M152 -377L33 -123Q186 -66 277 91T420 502Q404 567 390 615T344 750T278 903T188 1043T68 1167L279 1403Q391 1323 472 1171T590 855T627 528Q627 333 588 172T482 -98T331 -276T152 -377Z" />
<glyph unicode="*" glyph-name="uni002A" horiz-adv-x="722" d="M246 1329L270 1350L428 1315L414 1108L614 1194L641 1178Q641 1174 662 1018L465 961L608 801L602 772Q487 711 457 700L336 874L203 688H172L72 815L209 963L-2 1026L-12 1057L74 1192L258 1110L246
1329Z" />
<glyph unicode="+" glyph-name="uni002B" horiz-adv-x="1067" d="M633 31L420 2Q416 147 414 317H143L117 553H410L401 868L662 864Q661 852 651 551H944L928 315Q795 315 643 317L633 31Z" />
<glyph unicode="," glyph-name="uni002C" horiz-adv-x="430" d="M43 299L367 317L379 106L383 41Q385 -7 379 -44T354 -113T299 -162T207 -178Q184 -177 166 -175T142 -172L135 -170L141 -115Q182 -109 201 -82T223 -8L61 -18L43 299Z" />
<glyph unicode="-" glyph-name="uni002D" horiz-adv-x="1067" d="M944 551L928 315Q878 315 805 315T536 317T266 318T143 317L117 553L944 551Z" />
<glyph unicode="." glyph-name="uni002E" horiz-adv-x="430" d="M385 0L61 -18L43 299L367 317L385 0Z" />
<glyph unicode="/" glyph-name="uni002F" horiz-adv-x="847" d="M786 1343L281 0H35L541 1343H786Z" />
<glyph unicode="0" glyph-name="uni0030" horiz-adv-x="1122" d="M561 -25Q459 -25 378 7T241 98T150 242T97 427T80 649T96 870T149 1056T241 1199T377 1290T561 1323Q688 1323 782 1274T932 1133T1015 921T1042 649T1015 378T932 166T782 25T561 -25ZM561 205Q752
205 752 649Q752 1092 561 1092Q371 1092 371 649Q371 205 561 205Z" />
<glyph unicode="1" glyph-name="uni0031" horiz-adv-x="976" d="M104 223H369V969L147 883Q106 938 86 981Q63 1028 47 1083L580 1317H633V223H897Q905 182 905 113Q905 41 897 0H104Q94 51 94 113Q94 172 104 223Z" />
<glyph unicode="2" glyph-name="uni0032" horiz-adv-x="1040" d="M113 0L100 27L391 438Q406 460 436 503T480 566T518 622T554 678T583 728T609 778T627 824T639 870T643 913Q643 999 585 1044T420 1090Q292 1090 186 1028Q127 1169 125 1247Q213 1287 291 1306T467
1325Q594 1325 695 1281T858 1148T920 940Q920 810 864 694T680 406L551 229H950Q961 163 961 117Q961 68 950 0H113Z" />
<glyph unicode="3" glyph-name="uni0033" horiz-adv-x="1024" d="M336 602L317 629L565 1075H160Q147 1135 147 1186Q147 1242 160 1300H930L948 1270L651 776H659Q796 776 882 679T969 453Q969 299 898 190T707 28T434 -25Q329 -25 259 -12T82 37Q91 153 145
252Q230 225 288 213T422 201Q549 201 629 259T709 436Q709 525 640 569T465 614Q385 614 336 602Z" />
<glyph unicode="4" glyph-name="uni0034" horiz-adv-x="1114" d="M49 256L33 283L555 1337Q695 1320 784 1251L406 479H668V774Q740 784 791 784Q846 784 924 774V479H1055Q1067 426 1067 369Q1067 308 1055 256H924V-2Q909 -3 867 -6T801 -10T732 -7T668 -2V256H49Z" />
<glyph unicode="5" glyph-name="uni0035" horiz-adv-x="1079" d="M223 598L252 1303H911Q922 1245 922 1192Q922 1135 911 1077H487L475 815Q546 827 588 827Q772 827 880 727T989 442Q989 217 841 97T428 -23Q371 -23 284 -9T115 33Q117 49 119 64T127 98T135
128T145 161T155 191T167 224T178 254Q311 207 422 207Q576 207 645 268T715 426Q715 623 457 623Q344 623 252 575L223 598Z" />
<glyph unicode="6" glyph-name="uni0036" horiz-adv-x="1056" d="M803 1333Q825 1272 825 1214Q825 1172 809 1116Q710 1112 628 1080T489 993T398 869T350 721Q447 852 616 852Q697 852 767 825T893 747T981 613T1014 426Q1014 319 975 232T869 89T720 5T547
-25Q316 -25 195 110T74 514Q74 686 118 829T251 1083T480 1259T803 1333ZM543 188Q631 188 686 247T741 420Q741 536 690 591T549 647Q455 647 402 591T348 428Q348 313 399 251T543 188Z" />
<glyph unicode="7" glyph-name="uni0037" horiz-adv-x="1071" d="M217 66L639 1075H84Q74 1137 74 1186Q74 1238 84 1298H991L1004 1278L461 -39Q317 -8 217 66Z" />
<glyph unicode="8" glyph-name="uni0038" horiz-adv-x="1081" d="M299 700Q224 744 179 818T133 983Q133 1135 247 1229T541 1323Q716 1323 832 1229T948 983Q948 893 902 820T780 700Q1006 582 1006 348Q1006 270 980 207T911 101T807 30T681 -12T541 -25T402
-12T275 29T170 100T100 206T74 348Q74 476 138 565T299 700ZM539 598Q447 567 394 510T340 371Q340 283 392 235T541 186Q638 186 689 234T741 371Q741 530 539 598ZM541 780Q620 808 662 854T705 975Q705 1040 662 1079T541 1118Q461 1118 419 1079T377 975Q377
901 419 855T541 780Z" />
<glyph unicode="9" glyph-name="uni0039" horiz-adv-x="1048" d="M262 -12Q240 49 240 106Q240 149 256 205Q356 209 437 241T574 329T665 452T715 602Q624 469 446 469Q366 469 296 495T171 573T83 708T51 897Q51 1004 90 1091T196 1232T345 1316T518 1346Q749
1346 870 1211T991 807Q991 636 946 492T813 238T585 62T262 -12ZM516 676Q610 676 663 731T717 893Q717 1009 666 1071T522 1133Q434 1133 379 1074T324 901Q324 785 375 731T516 676Z" />
<glyph unicode=":" glyph-name="uni003A" horiz-adv-x="430" d="M385 0L61 -18L43 299L367 317L385 0ZM367 621L43 602L25 920L348 938L367 621Z" />
<glyph unicode=";" glyph-name="uni003B" horiz-adv-x="430" d="M43 299L367 317L379 106L383 41Q385 -7 379 -44T354 -113T299 -162T207 -178Q184 -177 166 -175T142 -172L135 -170L141 -115Q182 -109 201 -82T223 -8L61 -18L43 299ZM367 621L43 602L25 920L348
938L367 621Z" />
<glyph unicode="&lt;" glyph-name="uni003C" horiz-adv-x="903" d="M147 414Q171 481 241 577T397 743Q488 818 553 844L684 678L393 414L686 152L553 -18Q488 6 397 82Q311 152 241 249T147 414Z" />
<glyph unicode="=" glyph-name="uni003D" horiz-adv-x="1316" d="M1110 788L1094 553Q1044 553 971 553T702 555T432 556T309 555L283 791L1110 788ZM1110 354L1094 119Q1044 119 971 119T702 121T432 122T309 121L283 356L1110 354Z" />
<glyph unicode="&gt;" glyph-name="uni003E" horiz-adv-x="903" d="M739 414Q716 346 646 249T489 82Q400 7 334 -18L201 152L494 414L203 678L334 844Q400 818 489 743Q575 673 645 577T739 414Z" />
<glyph unicode="[" glyph-name="uni005B" horiz-adv-x="698" d="M102 -248V4Q102 1163 106 1462Q156 1457 312 1458T559 1466L586 1206Q452 1194 391 1190Q372 900 344 0Q501 4 555 8L582 -252Q473 -262 411 -266T259 -268T102 -248Z" />
<glyph unicode="\" glyph-name="uni005C" horiz-adv-x="849" d="M281 1544L786 -201H541L35 1544H281Z" />
<glyph unicode="]" glyph-name="uni005D" horiz-adv-x="704" d="M586 -27V-248Q518 -264 429 -267T278 -267T106 -252L133 8Q186 4 342 0Q324 779 297 1190Q236 1194 102 1206L129 1466Q220 1460 376 1459T582 1462L586 -27Z" />
<glyph unicode="_" glyph-name="uni005F" horiz-adv-x="1024" d="M1024 -156L1008 -348Q946 -348 855 -348T518 -346T180 -345T27 -346L0 -154L1024 -156Z" />
<glyph unicode="{" glyph-name="uni007B" horiz-adv-x="655" d="M213 449V451Q213 453 213 456T212 467T205 483T188 499T158 512Q125 514 37 510L-2 743Q148 759 158 760Q185 768 199 784T213 812V823V1114Q214 1173 219 1216T236 1303T272 1375T331 1427T419
1460T541 1470Q563 1470 584 1469T615 1466L625 1464V1370Q615 1367 597 1362T572 1355T550 1347T530 1337T514 1325T500 1308T490 1286T481 1257T477 1221L459 815Q457 770 426 720T322 637Q396 604 427 555T459 461V436L471 55Q472 32 476 14T484 -16T499 -40T516
-57T539 -69T564 -78T594 -87T625 -96V-190Q590 -197 541 -197Q458 -198 399 -181T305 -136T249 -60T221 38T213 160V449Z" />
<glyph unicode="|" glyph-name="uni007C" horiz-adv-x="479" d="M356 1479V-209H123V1479H356Z" />
<glyph unicode="}" glyph-name="uni007D" horiz-adv-x="702" d="M164 436V461Q164 505 195 554T301 637Q227 670 197 719T164 815L145 1221Q144 1244 140 1261T132 1291T118 1314T102 1331T81 1343T58 1352T29 1361T-2 1370V1464Q33 1470 82 1470Q151 1471 203
1461T291 1427T350 1375T386 1303T404 1217T410 1114V823Q409 818 409 810T423 785T463 760Q476 759 625 743L586 510Q496 514 463 512Q435 505 422 490T410 462V451Q412 449 410 449V160Q409 89 402 39T375 -59T318 -135T223 -181T82 -197Q60 -197 39 -196T8 -192L-2
-190V-96Q7 -93 29 -87T59 -79T83 -70T106 -57T124 -40T139 -17T147 14T152 55L164 436Z" />
</font>
</defs>
</svg>
