<?xml version="1.0" encoding="utf-8"?>
<!-- Generator: Adobe Illustrator 16.0.0, SVG Export Plug-In . SVG Version: 6.00 Build 0)  -->
<!DOCTYPE svg PUBLIC "-//W3C//DTD SVG 1.1//EN" "http://www.w3.org/Graphics/SVG/1.1/DTD/svg11.dtd">
<svg version="1.1" id="Layer_2" xmlns="http://www.w3.org/2000/svg" xmlns:xlink="http://www.w3.org/1999/xlink" x="0px" y="0px"
	 width="597.5px" height="170.5px" viewBox="0 0 597.5 170.5" enable-background="new 0 0 597.5 170.5" xml:space="preserve">
<g>
	<g>
		<path d="M457.733,13.916c-0.1-0.351-0.348-0.654-0.729-0.916c-2.614,0.249-5.243,0.519-7.887,0.815
			c-39.035,4.379-89.194,20.479-116.766,30.127c-27.568-9.647-77.729-25.748-116.765-30.127c-2.642-0.297-5.271-0.566-7.886-0.815
			c-0.382,0.262-0.629,0.565-0.727,0.916c-0.199,0.715,0.238,1.587,1.214,2.587c15.02,2.701,30.683,7.296,46.95,12.242
			c29.881,9.086,50.395,19.738,67.254,31.396c-0.996,0.669-4.74,3.189-6.082,4.164c-2.75,2-4.387,4.834-4.387,4.834
			s7.248,4.155,11.91,5.133c3.145,0.658,4.836,0.658,8.518,0.658c3.678,0,5.75-0.338,9.324-0.826c3.236-0.442,11.1-4.965,11.1-4.965
			s-1.635-2.834-4.385-4.834c-1.342-0.975-5.086-3.495-6.082-4.164c16.857-11.658,37.375-22.311,67.256-31.396
			c16.268-4.946,31.93-9.541,46.947-12.242C457.495,15.503,457.933,14.631,457.733,13.916z"/>
		<text transform="matrix(1 0 0 1 14.3154 151.0625)" font-family="'Helvetica'" font-size="26.0756">DAL COMPANY FOR GENERAL TRADING ,LTD</text>
	</g>
	<path fill="#AF0000" d="M303.018,84.39c-2.515,7.644-9.7,13.167-18.185,13.167H246.65V28.77h-19v89.759
		c1.317,0.232,2.662,0.359,4.03,0.359h65.726c15.414,0,27.973-15.322,28.55-34.5L303.018,84.39L303.018,84.39z"/>
	<path fill="#AF0000" d="M363.589,84.39c2.515,7.644,9.699,13.167,18.185,13.167h38.186V28.77h19v89.759
		c-1.317,0.232-2.662,0.359-4.03,0.359h-65.726c-15.416,0-27.975-15.322-28.553-34.5L363.589,84.39L363.589,84.39z"/>
	<path fill="#AF0000" d="M15.983,29.056v23.547h19v-0.041h53.333v25.345c0,10.575-8.574,19.149-19.15,19.149H34.983V76.27h-19
		v41.759c1.317,0.23,2.661,0.359,4.03,0.359h61.726c15.783,0,28.577-16.062,28.577-35.876V29.056H15.983L15.983,29.056z"/>
	<path fill="#AF0000" d="M487.983,97.27v20.76c1.314,0.232,2.66,0.361,4.027,0.361h61.729c15.783,0,28.576-16.062,28.576-35.876
		V29.056h-94.332v23.547h19v-0.041h53.334v25.345c0,10.575-8.574,19.149-19.15,19.149h-53.184"/>
	<path fill="#AF0000" d="M217.286,29.056h-65.727c-15.782,0-28.576,16.062-28.576,35.877v54.458h21.999V97.389h53.334v21.788h19
		 M144.982,74.224V69.54c0-10.576,8.574-19.15,19.15-19.15h34.184v23.834H144.982z"/>
	<rect x="452.899" y="29.056" fill="#AF0000" width="21" height="90.121"/>
</g>
<g id="Layer_3">
</g>
</svg>
