<?xml version="1.0" encoding="utf-8"?>
<!-- Generator: Adobe Illustrator 16.0.0, SVG Export Plug-In . SVG Version: 6.00 Build 0)  -->
<!DOCTYPE svg PUBLIC "-//W3C//DTD SVG 1.1//EN" "http://www.w3.org/Graphics/SVG/1.1/DTD/svg11.dtd">
<svg version="1.1" id="Layer_1" xmlns="http://www.w3.org/2000/svg" xmlns:xlink="http://www.w3.org/1999/xlink" x="0px" y="0px"
	 width="3000px" height="2000px" viewBox="0 0 3000 2000" enable-background="new 0 0 3000 2000" xml:space="preserve">
<g>
	<rect fill="#278E43" width="3000" height="2000"/>
	<rect fill="#FFFFFF" width="3000" height="1333.333"/>
	<rect fill="#ED2024" width="3000" height="666.667"/>
</g>
<path fill="#FEBD11" d="M1500,500l36.755,258.273l111.036-235.936l-40.793,257.663l175.452-192.632l-114.715,234.157
	l224.276-132.214l-178.444,189.847l253.175-60.047l-226.319,128.667L2000,965.233l-254.084,56.056l242.915,93.404l-259.272-21.537
	l204.668,161.056l-241.423-97.217l148.236,214.396l-202.122-164.257l78.632,248.688l-144.862-216.703L1574.73,1500L1500,1250.105
	L1425.27,1500l2.043-260.881l-144.862,216.703l78.632-248.688l-202.122,164.257l148.236-214.396l-241.423,97.217l204.668-161.056
	l-259.272,21.537l242.915-93.404L1000,965.233l259.577-17.454l-226.319-128.667l253.175,60.047l-178.444-189.847l224.276,132.214
	L1217.55,587.369l175.452,192.632l-40.793-257.663l111.036,235.936L1500,500z"/>
</svg>
